<svg width="256" height="87" viewBox="0 0 256 87" fill="none" xmlns="http://www.w3.org/2000/svg">
<rect x="0.641879" y="0.29687" width="71.0879" height="43.9002" rx="7.5" transform="matrix(0.938665 -0.34483 0.345092 0.938569 172.776 43.1459)" fill="#5960A0" stroke="black"/>
<path d="M227.606 67.944L250.525 54.0119L223.253 67.944L249.09 52.0424L192.694 79.9784L249.09 48.4681L194.531 75.7271L247.538 46.5135L191.2 74.2852L246.641 42.6255L186.876 73.4734L245.148 40.3574L188.639 67.944L240.668 38.6386L186.249 65.676L243.355 33.6922L182.576 63.2291L241.691 30.591L182.15 60.3095L239.232 29.0894L181.469 58.0388L240.794 26.055L180.402 54.0119L237.106 25.1298L181.469 51.8827" stroke="url(#paint0_linear_232_1943)" stroke-linecap="round" stroke-linejoin="round"/>
<rect x="0.67478" y="0.21408" width="71.2416" height="43.2245" rx="7.5" transform="matrix(0.88886 -0.458981 0.460699 0.88714 162.907 43.98)" fill="white" stroke="#262626"/>
<path d="M180.337 56.9231L178.613 71.1173C178.565 71.5117 178.636 71.9112 178.815 72.2659C179.659 73.9393 180.181 75.0377 181.199 76.8129C181.585 77.3806 182.193 77.9098 182.81 78.4535C183.834 79.3569 186.784 80.1177 187.59 79.6547C195.263 75.6618 201.308 72.5855 210.456 68.1373C205.814 65.1833 192.23 56.0997 192.23 56.0997C185.572 54.4687 181.411 49.5207 180.337 56.9231Z" fill="#D1D1D1"/>
<path d="M187.123 53.5886L185.305 76.576C185.183 78.1221 186.79 79.2124 188.182 78.5272L214.552 65.5424C209.687 61.863 199.396 52.8619 199.396 52.8619C194.366 48.913 187.689 48.7029 187.123 53.5886Z" fill="#F1F1F1"/>
<path d="M14.9781 62.952V29.544H16.8501L40.1781 52.248V29.544H41.9541V62.952H14.9781ZM63.5173 28.872C66.0133 28.872 68.3173 29.496 70.4293 30.744C72.5413 31.96 74.2053 33.624 75.4213 35.736C76.6693 37.848 77.2933 40.152 77.2933 42.648V49.944C77.2933 52.44 76.6693 54.744 75.4213 56.856C74.2053 58.968 72.5413 60.648 70.4293 61.896C68.3173 63.112 66.0133 63.72 63.5173 63.72C61.0213 63.72 58.7173 63.112 56.6053 61.896C54.4933 60.648 52.8133 58.968 51.5653 56.856C50.3493 54.744 49.7413 52.44 49.7413 49.944V42.648C49.7413 40.152 50.3493 37.848 51.5653 35.736C52.8133 33.624 54.4933 31.96 56.6053 30.744C58.7173 29.496 61.0213 28.872 63.5173 28.872ZM51.5173 49.944C51.5173 52.12 52.0453 54.136 53.1013 55.992C54.1893 57.816 55.6453 59.272 57.4693 60.36C59.3253 61.416 61.3413 61.944 63.5173 61.944C65.6933 61.944 67.6933 61.416 69.5173 60.36C71.3733 59.272 72.8293 57.816 73.8853 55.992C74.9733 54.136 75.5173 52.12 75.5173 49.944V42.648C75.5173 40.472 74.9733 38.472 73.8853 36.648C72.8293 34.792 71.3733 33.336 69.5173 32.28C67.6933 31.192 65.6933 30.648 63.5173 30.648C61.3413 30.648 59.3253 31.192 57.4693 32.28C55.6453 33.336 54.1893 34.792 53.1013 36.648C52.0453 38.472 51.5173 40.472 51.5173 42.648V49.944ZM87.0486 29.592H111.385V38.04H95.7846V42.264H108.745V50.28H95.7846V54.552H111.385V63H87.0486V29.592ZM133.428 46.296L120.612 29.592H122.916L134.58 44.808L146.292 29.592H148.548L135.732 46.296L148.548 63H146.292L134.58 47.784L122.916 63H120.612L133.428 46.296ZM194.554 29.592H219.466V31.368H196.33V45.384H215.05V47.16H196.33V63H194.554V29.592Z" fill="#2D2D2D"/>
<mask id="path-7-inside-1_232_1943" fill="white">
<path fill-rule="evenodd" clip-rule="evenodd" d="M181.511 48.8309C182.682 46.781 183.353 44.3953 183.353 41.8491C183.353 34.2004 177.298 28 169.827 28C162.357 28 156.301 34.2004 156.301 41.8491C156.301 44.3953 156.972 46.781 158.143 48.8309L158.141 48.8309C158.171 48.8817 158.201 48.9323 158.231 48.9826C158.256 49.0245 158.281 49.0661 158.306 49.1077C161.162 53.9019 163.31 56.8386 165.733 60.1517C167.004 61.89 168.352 63.7318 169.917 66L180.357 50.5424C180.778 50.0091 181.16 49.4432 181.501 48.849L181.513 48.8309L181.511 48.8309Z"/>
</mask>
<path fill-rule="evenodd" clip-rule="evenodd" d="M181.511 48.8309C182.682 46.781 183.353 44.3953 183.353 41.8491C183.353 34.2004 177.298 28 169.827 28C162.357 28 156.301 34.2004 156.301 41.8491C156.301 44.3953 156.972 46.781 158.143 48.8309L158.141 48.8309C158.171 48.8817 158.201 48.9323 158.231 48.9826C158.256 49.0245 158.281 49.0661 158.306 49.1077C161.162 53.9019 163.31 56.8386 165.733 60.1517C167.004 61.89 168.352 63.7318 169.917 66L180.357 50.5424C180.778 50.0091 181.16 49.4432 181.501 48.849L181.513 48.8309L181.511 48.8309Z" fill="white"/>
<path d="M181.511 48.8309L180.643 48.3349L179.788 49.8309L181.511 49.8309L181.511 48.8309ZM158.143 48.8309L158.143 49.8309L159.866 49.8309L159.012 48.3349L158.143 48.8309ZM158.141 48.8309L158.141 47.8309L156.386 47.8309L157.281 49.3408L158.141 48.8309ZM158.231 48.9826L159.093 48.4757L159.091 48.4717L158.231 48.9826ZM158.306 49.1077L159.165 48.5958L159.162 48.5918L158.306 49.1077ZM165.733 60.1517L164.926 60.742L165.733 60.1517ZM169.917 66L169.093 66.5679L169.925 67.7736L170.745 66.5597L169.917 66ZM180.357 50.5424L179.572 49.9232L179.549 49.9521L179.529 49.9826L180.357 50.5424ZM181.501 48.849L180.672 48.2893L180.652 48.3198L180.633 48.3517L181.501 48.849ZM181.513 48.8309L182.342 49.3906L183.395 47.8309L181.513 47.8309L181.513 48.8309ZM182.353 41.8491C182.353 44.2177 181.73 46.4329 180.643 48.3349L182.38 49.3269C183.635 47.1291 184.353 44.5728 184.353 41.8491L182.353 41.8491ZM169.827 29C176.723 29 182.353 34.7303 182.353 41.8491L184.353 41.8491C184.353 33.6705 177.872 27 169.827 27L169.827 29ZM157.301 41.8491C157.301 34.7303 162.932 29 169.827 29L169.827 27C161.783 27 155.301 33.6705 155.301 41.8491L157.301 41.8491ZM159.012 48.3349C157.925 46.4329 157.301 44.2177 157.301 41.8491L155.301 41.8491C155.301 44.5728 156.02 47.1291 157.275 49.3269L159.012 48.3349ZM158.141 49.8309L158.143 49.8309L158.143 47.8309L158.141 47.8309L158.141 49.8309ZM159.091 48.4717C159.061 48.4217 159.031 48.3714 159.002 48.321L157.281 49.3408C157.311 49.3919 157.342 49.4429 157.372 49.4936L159.091 48.4717ZM159.162 48.5918C159.139 48.5532 159.116 48.5145 159.093 48.4757L157.369 49.4895C157.396 49.5344 157.422 49.5791 157.449 49.6236L159.162 48.5918ZM166.54 59.5614C164.121 56.2533 161.996 53.3478 159.165 48.5958L157.447 49.6195C160.328 54.456 162.499 57.4239 164.926 60.742L166.54 59.5614ZM170.74 65.4321C169.166 63.1514 167.812 61.2995 166.54 59.5614L164.926 60.742C166.197 62.4804 167.537 64.3123 169.093 66.5679L170.74 65.4321ZM179.529 49.9826L169.088 65.4403L170.745 66.5597L181.186 51.1021L179.529 49.9826ZM180.633 48.3517C180.317 48.9032 179.962 49.4284 179.572 49.9232L181.142 51.1615C181.593 50.5898 182.003 49.9832 182.369 49.3464L180.633 48.3517ZM180.685 48.2712L180.672 48.2893L182.33 49.4088L182.342 49.3906L180.685 48.2712ZM181.511 49.8309L181.513 49.8309L181.513 47.8309L181.511 47.8309L181.511 49.8309Z" fill="#2D2D2D" mask="url(#path-7-inside-1_232_1943)"/>
<path d="M175.699 41.9637C175.699 45.3652 173.009 48.1024 169.716 48.1024C166.422 48.1024 163.732 45.3652 163.732 41.9637C163.732 38.5621 166.422 35.825 169.716 35.825C173.009 35.825 175.699 38.5621 175.699 41.9637Z" fill="#5960A0" stroke="#2D2D2D"/>
<defs>
<linearGradient id="paint0_linear_232_1943" x1="215.464" y1="25.1298" x2="215.464" y2="79.9784" gradientUnits="userSpaceOnUse">
<stop stop-color="#D1D1D1"/>
<stop offset="0.119898" stop-color="#D1D1D1" stop-opacity="0"/>
<stop offset="0.238064" stop-color="#D1D1D1"/>
<stop offset="0.375925" stop-color="#D1D1D1" stop-opacity="0"/>
<stop offset="0.500657" stop-color="#D1D1D1"/>
<stop offset="0.625388" stop-color="#D1D1D1" stop-opacity="0"/>
<stop offset="0.671342" stop-color="#D1D1D1"/>
<stop offset="0.809203" stop-color="#D1D1D1" stop-opacity="0"/>
<stop offset="0.90111" stop-color="#D1D1D1"/>
<stop offset="1" stop-color="#D1D1D1" stop-opacity="0"/>
</linearGradient>
</defs>
</svg>
